<svg width="1200" height="628" viewBox="0 0 1200 628" fill="none" xmlns="http://www.w3.org/2000/svg">
<rect width="1200" height="628" fill="white"/>
<circle cx="238.945" cy="311.59" r="151.68" fill="#4A148C"/>
<path d="M250.44 229.656C235.663 228.641 222.422 234.308 210.716 246.657C199.011 259.005 189.816 277.042 183.131 300.769L177.651 321.219C171.354 344.722 171.463 364.053 177.979 379.212C184.495 394.371 196.35 404.254 213.545 408.862C230.74 413.469 245.925 410.722 259.1 400.621C272.275 390.52 281.984 373.82 288.227 350.521L292.848 333.275C299.391 308.857 300.712 288.055 296.811 270.87C292.808 253.659 283.811 241.652 269.822 234.85L276.447 210.126L351.534 230.246L345.114 254.206L311.385 245.169C319.39 258.437 324.358 273.672 326.292 290.874C328.198 308.179 326.943 325.072 322.527 341.555L317.987 358.495C312.917 377.42 304.83 393.355 293.728 406.301C282.524 419.22 269.384 427.967 254.309 432.543C239.206 437.22 223.464 437.364 207.084 432.975C190.805 428.613 177.318 420.746 166.625 409.375C155.83 397.977 148.756 384.086 145.404 367.703C142.051 351.32 142.676 333.93 147.278 315.534L152.594 295.694C156.956 279.415 164.288 264.259 174.591 250.226C184.867 236.295 196.788 225.586 210.353 218.098L176.778 209.101L183.198 185.14L257.064 204.933L250.44 229.656Z" fill="white"/>
<line x1="134.031" y1="275.317" x2="348.915" y2="332.895" stroke="white" stroke-width="20.224" stroke-linecap="round"/>
<line x1="209.079" y1="422.607" x2="237.868" y2="315.165" stroke="white" stroke-width="10.112" stroke-linecap="round"/>
<line x1="181.17" y1="410.068" x2="209.959" y2="302.626" stroke="white" stroke-width="10.112" stroke-linecap="round"/>
<line x1="240.629" y1="422.607" x2="269.417" y2="315.165" stroke="white" stroke-width="10.112" stroke-linecap="round"/>
<path d="M522.023 344.891H462.453L449.074 382H429.738L484.035 239.812H500.441L554.836 382H535.598L522.023 344.891ZM468.117 329.461H516.457L492.238 262.957L468.117 329.461ZM660.402 330.34C660.402 346.421 656.724 359.376 649.367 369.207C642.01 379.038 632.049 383.953 619.484 383.953C606.659 383.953 596.568 379.884 589.211 371.746V422.625H571.145V276.336H587.648L588.527 288.055C595.884 278.94 606.105 274.383 619.191 274.383C631.887 274.383 641.913 279.168 649.27 288.738C656.691 298.309 660.402 311.622 660.402 328.68V330.34ZM642.336 328.289C642.336 316.375 639.797 306.967 634.719 300.066C629.641 293.165 622.674 289.715 613.82 289.715C602.883 289.715 594.68 294.565 589.211 304.266V354.754C594.615 364.389 602.883 369.207 614.016 369.207C622.674 369.207 629.543 365.789 634.621 358.953C639.764 352.052 642.336 341.831 642.336 328.289ZM678.664 328.191C678.664 317.84 680.682 308.53 684.719 300.262C688.82 291.993 694.484 285.613 701.711 281.121C709.003 276.629 717.303 274.383 726.613 274.383C741.001 274.383 752.622 279.363 761.477 289.324C770.396 299.285 774.855 312.534 774.855 329.07V330.34C774.855 340.626 772.87 349.871 768.898 358.074C764.992 366.212 759.361 372.56 752.004 377.117C744.712 381.674 736.314 383.953 726.809 383.953C712.486 383.953 700.865 378.973 691.945 369.012C683.091 359.051 678.664 345.867 678.664 329.461V328.191ZM696.828 330.34C696.828 342.059 699.53 351.466 704.934 358.562C710.402 365.659 717.694 369.207 726.809 369.207C735.988 369.207 743.28 365.626 748.684 358.465C754.087 351.238 756.789 341.147 756.789 328.191C756.789 316.603 754.022 307.228 748.488 300.066C743.02 292.84 735.728 289.227 726.613 289.227C717.694 289.227 710.5 292.775 705.031 299.871C699.562 306.967 696.828 317.124 696.828 330.34ZM817.141 382H799.074V232H817.141V382ZM865.773 382H847.707V232H865.773V382ZM914.406 382H896.34V276.336H914.406V382ZM894.875 248.309C894.875 245.379 895.754 242.905 897.512 240.887C899.335 238.868 902.004 237.859 905.52 237.859C909.035 237.859 911.704 238.868 913.527 240.887C915.35 242.905 916.262 245.379 916.262 248.309C916.262 251.238 915.35 253.68 913.527 255.633C911.704 257.586 909.035 258.562 905.52 258.562C902.004 258.562 899.335 257.586 897.512 255.633C895.754 253.68 894.875 251.238 894.875 248.309ZM952.297 382V290.301H935.598V276.336H952.297V265.496C952.297 254.168 955.324 245.411 961.379 239.227C967.434 233.042 975.995 229.949 987.062 229.949C991.229 229.949 995.363 230.503 999.465 231.609L998.488 246.258C995.428 245.672 992.173 245.379 988.723 245.379C982.863 245.379 978.339 247.104 975.148 250.555C971.958 253.94 970.363 258.823 970.363 265.203V276.336H992.922V290.301H970.363V382H952.297ZM1047.51 355.535L1072.12 276.336H1091.46L1048.98 398.309C1042.4 415.887 1031.95 424.676 1017.63 424.676L1014.21 424.383L1007.47 423.113V408.465L1012.36 408.855C1018.48 408.855 1023.23 407.618 1026.61 405.145C1030.06 402.671 1032.9 398.146 1035.11 391.57L1039.11 380.828L1001.42 276.336H1021.14L1047.51 355.535Z" fill="#4A148C"/>
</svg>
